<svg xmlns="http://www.w3.org/2000/svg" xmlns:xlink="http://www.w3.org/1999/xlink" width="138" height="34" viewBox="0 0 138 34">
  <defs>
    <clipPath id="clip-logo_light">
      <rect width="138" height="34"/>
    </clipPath>
  </defs>
  <g id="logo_light" clip-path="url(#clip-logo_light)">
    <path id="Path_1" data-name="Path 1" d="M11.416-12.364V0H9.158L3.779-7.782H3.689V0H1.075V-12.364H3.369L8.705-4.588h.109v-7.776ZM17.749.181A4.917,4.917,0,0,1,15.289-.4,3.941,3.941,0,0,1,13.7-2.056a5.449,5.449,0,0,1-.555-2.539A5.421,5.421,0,0,1,13.7-7.105,4.1,4.1,0,0,1,15.27-8.79a4.547,4.547,0,0,1,2.376-.6,4.908,4.908,0,0,1,1.711.293,3.858,3.858,0,0,1,1.388.878,4,4,0,0,1,.927,1.47A5.872,5.872,0,0,1,22-4.685v.706h-7.83V-5.572h5.409a1.97,1.97,0,0,0-.241-.984,1.757,1.757,0,0,0-.667-.673,1.946,1.946,0,0,0-.987-.244,1.98,1.98,0,0,0-1.035.269,1.927,1.927,0,0,0-.7.718,2.046,2.046,0,0,0-.26,1v1.515a2.579,2.579,0,0,0,.257,1.189,1.837,1.837,0,0,0,.727.773,2.2,2.2,0,0,0,1.117.272,2.432,2.432,0,0,0,.785-.121,1.629,1.629,0,0,0,.61-.362,1.575,1.575,0,0,0,.386-.592l2.379.157a3.242,3.242,0,0,1-.74,1.494,3.715,3.715,0,0,1-1.437.99A5.4,5.4,0,0,1,17.749.181ZM25.44,0,22.916-9.273h2.6l1.437,6.23h.085l1.5-6.23H31.09l1.521,6.194h.078L34.1-9.273h2.6L34.181,0H31.458L29.865-5.832H29.75L28.156,0ZM42.053,0V-12.364h2.614V-2.155h5.3V0Zm9.6,0V-9.273h2.572V0Zm1.292-10.468a1.381,1.381,0,0,1-.981-.383,1.219,1.219,0,0,1-.407-.921,1.213,1.213,0,0,1,.407-.915,1.381,1.381,0,0,1,.981-.383,1.381,1.381,0,0,1,.981.383,1.213,1.213,0,0,1,.407.915,1.219,1.219,0,0,1-.407.921A1.381,1.381,0,0,1,52.944-10.468Zm8.319,1.2v1.932H55.54V-9.273ZM56.85,0V-9.943a3.224,3.224,0,0,1,.4-1.672,2.5,2.5,0,0,1,1.084-1,3.554,3.554,0,0,1,1.564-.332,6,6,0,0,1,1.084.091,7.492,7.492,0,0,1,.733.163l-.459,1.932a3.25,3.25,0,0,0-.371-.091,2.383,2.383,0,0,0-.45-.042,1,1,0,0,0-.791.263,1.1,1.1,0,0,0-.223.733V0Zm9.882.181A4.917,4.917,0,0,1,64.272-.4a3.941,3.941,0,0,1-1.585-1.654,5.449,5.449,0,0,1-.555-2.539,5.421,5.421,0,0,1,.555-2.511A4.1,4.1,0,0,1,64.254-8.79a4.547,4.547,0,0,1,2.376-.6,4.908,4.908,0,0,1,1.711.293,3.858,3.858,0,0,1,1.388.878,4,4,0,0,1,.927,1.47,5.872,5.872,0,0,1,.332,2.068v.706h-7.83V-5.572h5.409a1.97,1.97,0,0,0-.241-.984,1.757,1.757,0,0,0-.667-.673,1.946,1.946,0,0,0-.987-.244,1.98,1.98,0,0,0-1.035.269,1.927,1.927,0,0,0-.7.718,2.046,2.046,0,0,0-.26,1v1.515a2.579,2.579,0,0,0,.257,1.189,1.837,1.837,0,0,0,.727.773,2.2,2.2,0,0,0,1.117.272,2.432,2.432,0,0,0,.785-.121,1.629,1.629,0,0,0,.61-.362,1.575,1.575,0,0,0,.386-.592l2.379.157a3.242,3.242,0,0,1-.74,1.494,3.715,3.715,0,0,1-1.437.99A5.4,5.4,0,0,1,66.732.181ZM.6,9.792V7.636H10.758V9.792H6.973V20H4.389V9.792ZM13.776,20.175a3.832,3.832,0,0,1-1.582-.311,2.5,2.5,0,0,1-1.1-.924,2.736,2.736,0,0,1-.4-1.53,2.7,2.7,0,0,1,.284-1.3,2.3,2.3,0,0,1,.773-.845,3.743,3.743,0,0,1,1.114-.483,8.387,8.387,0,0,1,1.313-.229q.809-.085,1.3-.16a1.821,1.821,0,0,0,.718-.226.5.5,0,0,0,.223-.447v-.036a1.116,1.116,0,0,0-.359-.887,1.5,1.5,0,0,0-1.017-.314,1.812,1.812,0,0,0-1.1.3,1.431,1.431,0,0,0-.543.764l-2.379-.193a3.253,3.253,0,0,1,.712-1.464,3.455,3.455,0,0,1,1.373-.954,5.259,5.259,0,0,1,1.953-.335,5.969,5.969,0,0,1,1.482.181,3.908,3.908,0,0,1,1.262.561,2.747,2.747,0,0,1,.872.975A2.961,2.961,0,0,1,19,13.746V20H16.559V18.714h-.072a2.579,2.579,0,0,1-.6.764,2.7,2.7,0,0,1-.9.513A3.662,3.662,0,0,1,13.776,20.175Zm.737-1.775a2.138,2.138,0,0,0,1-.226,1.752,1.752,0,0,0,.682-.613,1.588,1.588,0,0,0,.248-.875V15.7a1.315,1.315,0,0,1-.329.142q-.208.063-.468.115t-.519.091l-.471.069a3.181,3.181,0,0,0-.791.211,1.276,1.276,0,0,0-.525.389.969.969,0,0,0-.187.607.922.922,0,0,0,.383.8A1.633,1.633,0,0,0,14.513,18.4ZM21,20V10.727h2.451v1.636h.109a2.572,2.572,0,0,1,.966-1.286,3.017,3.017,0,0,1,3.242,0,2.259,2.259,0,0,1,.893,1.283h.1a2.478,2.478,0,0,1,1.029-1.277,3.191,3.191,0,0,1,1.766-.48,2.832,2.832,0,0,1,2.11.824,3.183,3.183,0,0,1,.812,2.333V20H31.905V14.271a1.518,1.518,0,0,0-.411-1.159,1.439,1.439,0,0,0-1.026-.386,1.383,1.383,0,0,0-1.093.444,1.7,1.7,0,0,0-.392,1.168V20H26.49V14.217A1.5,1.5,0,0,0,26.1,13.13a1.356,1.356,0,0,0-1.023-.4,1.417,1.417,0,0,0-.77.214,1.512,1.512,0,0,0-.54.6,1.918,1.918,0,0,0-.2.9V20Zm15.5,0V10.727h2.572V20ZM37.791,9.532a1.381,1.381,0,0,1-.981-.383,1.237,1.237,0,0,1,0-1.835,1.447,1.447,0,0,1,1.962,0,1.237,1.237,0,0,1,0,1.835A1.381,1.381,0,0,1,37.791,9.532Zm5.9-1.9V20H41.124V7.636ZM51.869,20h-2.8L53.336,7.636H56.7L60.967,20h-2.8l-3.1-9.538h-.1Zm-.175-4.86h6.616v2.04H51.694Zm18.376-3.507a2.754,2.754,0,0,0-.356-.782,2.283,2.283,0,0,0-.558-.58,2.493,2.493,0,0,0-.749-.365,3.2,3.2,0,0,0-.927-.127,2.956,2.956,0,0,0-1.663.471A3.083,3.083,0,0,0,64.7,11.618a5.376,5.376,0,0,0-.4,2.188A5.516,5.516,0,0,0,64.7,16a3.051,3.051,0,0,0,1.111,1.379,3.01,3.01,0,0,0,1.7.474,3.35,3.35,0,0,0,1.518-.317,2.254,2.254,0,0,0,.966-.9,2.691,2.691,0,0,0,.335-1.37l.531.078H67.668V13.384h5.174v1.558a5.417,5.417,0,0,1-.688,2.8,4.664,4.664,0,0,1-1.9,1.8,6.412,6.412,0,0,1-5.82-.139,5.277,5.277,0,0,1-2.05-2.191,7.279,7.279,0,0,1-.733-3.378,7.682,7.682,0,0,1,.438-2.683,5.7,5.7,0,0,1,1.229-2A5.322,5.322,0,0,1,65.163,7.9a5.966,5.966,0,0,1,2.276-.429,6.093,6.093,0,0,1,1.956.3A5.3,5.3,0,0,1,71,8.632a4.678,4.678,0,0,1,1.15,1.319,4.519,4.519,0,0,1,.574,1.681Zm19.584.332H87.01a2.616,2.616,0,0,0-.3-.915,2.332,2.332,0,0,0-.574-.685,2.53,2.53,0,0,0-.806-.435,3.122,3.122,0,0,0-.987-.151,2.948,2.948,0,0,0-1.672.474,3.068,3.068,0,0,0-1.1,1.376,5.476,5.476,0,0,0-.392,2.188,5.521,5.521,0,0,0,.4,2.222,2.86,2.86,0,0,0,2.756,1.817,3.29,3.29,0,0,0,.975-.139,2.524,2.524,0,0,0,.8-.407,2.332,2.332,0,0,0,.583-.655,2.6,2.6,0,0,0,.323-.881l2.644.012a4.792,4.792,0,0,1-.51,1.639,4.951,4.951,0,0,1-1.093,1.407,5.114,5.114,0,0,1-1.63.978,5.97,5.97,0,0,1-2.134.359,5.817,5.817,0,0,1-2.955-.749,5.288,5.288,0,0,1-2.053-2.167,7.255,7.255,0,0,1-.752-3.435,7.2,7.2,0,0,1,.761-3.441,5.321,5.321,0,0,1,2.065-2.164,5.8,5.8,0,0,1,2.934-.746,6.369,6.369,0,0,1,2,.3,5.089,5.089,0,0,1,1.633.878,4.607,4.607,0,0,1,1.162,1.41A5.28,5.28,0,0,1,89.654,11.965Zm4.4,2.674V20H91.484V7.636h2.5v4.727h.109a2.641,2.641,0,0,1,1.014-1.289,3.1,3.1,0,0,1,1.757-.468,3.3,3.3,0,0,1,1.687.42,2.87,2.87,0,0,1,1.123,1.2,4,4,0,0,1,.4,1.868V20H97.5V14.555a1.88,1.88,0,0,0-.432-1.334,1.576,1.576,0,0,0-1.222-.477,1.874,1.874,0,0,0-.927.223,1.563,1.563,0,0,0-.628.649A2.2,2.2,0,0,0,94.055,14.639Zm13.988,1.413V10.727h2.572V20h-2.469V18.316h-.1a2.744,2.744,0,0,1-1.041,1.31,3.075,3.075,0,0,1-1.772.5A3.125,3.125,0,0,1,103.6,19.7a2.885,2.885,0,0,1-1.1-1.2,4.13,4.13,0,0,1-.4-1.865v-5.9h2.572v5.445a1.875,1.875,0,0,0,.441,1.3,1.5,1.5,0,0,0,1.165.477,1.829,1.829,0,0,0,.869-.214,1.658,1.658,0,0,0,.655-.637A1.978,1.978,0,0,0,108.043,16.052ZM112.667,20V10.727h2.493v1.618h.1a2.41,2.41,0,0,1,.851-1.307,2.248,2.248,0,0,1,1.376-.444,3.89,3.89,0,0,1,.417.024,2.933,2.933,0,0,1,.392.066v2.282a3.36,3.36,0,0,0-.5-.1,4.5,4.5,0,0,0-.586-.042,2.06,2.06,0,0,0-1.011.244,1.817,1.817,0,0,0-.7.679,1.934,1.934,0,0,0-.257,1V20Zm10.7.181a4.715,4.715,0,0,1-2.448-.607,4.036,4.036,0,0,1-1.57-1.687,5.439,5.439,0,0,1-.546-2.487,5.413,5.413,0,0,1,.552-2.5,4.085,4.085,0,0,1,1.573-1.684,4.662,4.662,0,0,1,2.427-.607,4.83,4.83,0,0,1,2.125.441,3.552,3.552,0,0,1,1.443,1.238,3.637,3.637,0,0,1,.586,1.871h-2.427a1.9,1.9,0,0,0-.54-1.12,1.571,1.571,0,0,0-1.144-.426,1.722,1.722,0,0,0-1.041.323,2.086,2.086,0,0,0-.691.939,4,4,0,0,0-.248,1.491,4.132,4.132,0,0,0,.244,1.509,2.075,2.075,0,0,0,.691.948,1.834,1.834,0,0,0,1.838.145,1.548,1.548,0,0,0,.586-.528,2.012,2.012,0,0,0,.3-.836h2.427a3.8,3.8,0,0,1-.577,1.868,3.515,3.515,0,0,1-1.422,1.259A4.74,4.74,0,0,1,123.371,20.181Zm8.367-5.542V20h-2.572V7.636h2.5v4.727h.109a2.641,2.641,0,0,1,1.014-1.289,3.1,3.1,0,0,1,1.757-.468,3.3,3.3,0,0,1,1.687.42,2.87,2.87,0,0,1,1.123,1.2,4,4,0,0,1,.4,1.868V20h-2.572V14.555a1.88,1.88,0,0,0-.432-1.334,1.576,1.576,0,0,0-1.222-.477,1.874,1.874,0,0,0-.927.223,1.563,1.563,0,0,0-.628.649A2.2,2.2,0,0,0,131.738,14.639Z" transform="translate(-0.604 13.444)"/>
  </g>
</svg>
